<svg width="43" height="43" viewBox="0 0 43 43" fill="none" xmlns="http://www.w3.org/2000/svg">
<rect width="43" height="43" fill="#F5F5F5"/>
<g clip-path="url(#clip0_0_1)">
<rect width="1512" height="14459" transform="translate(-674 -1226)" fill="#FAFAFA"/>
<rect width="1512" height="1176" transform="translate(-677 -504)" fill="white"/>
<rect x="-589" y="-184" width="1341" height="765" rx="30" fill="#E8E8E8" fill-opacity="0.99"/>
<path d="M21.948 32.25C21.9471 32.0734 21.9816 31.8985 22.0492 31.7354C22.1169 31.5724 22.2165 31.4245 22.3421 31.3004L32.1425 21.5L22.3421 11.6996C22.1048 11.4448 21.9755 11.1079 21.9817 10.7598C21.9878 10.4117 22.1289 10.0795 22.3751 9.83333C22.6213 9.58714 22.9534 9.44611 23.3015 9.43997C23.6496 9.43383 23.9866 9.56305 24.2413 9.80041L34.9913 20.5504C35.2429 20.8024 35.3843 21.1439 35.3843 21.5C35.3843 21.8561 35.2429 22.1976 34.9913 22.4496L24.2413 33.1996C23.9893 33.4512 23.6478 33.5926 23.2917 33.5926C22.9356 33.5926 22.5941 33.4512 22.3421 33.1996C22.2165 33.0755 22.1169 32.9276 22.0492 32.7645C21.9816 32.6015 21.9471 32.4265 21.948 32.25Z" fill="#D05284"/>
<path d="M7.61442 21.5C7.61906 21.1451 7.76212 20.806 8.01313 20.555C8.26413 20.304 8.60323 20.1609 8.95817 20.1562H34.0415C34.3979 20.1562 34.7397 20.2978 34.9917 20.5498C35.2437 20.8018 35.3853 21.1436 35.3853 21.5C35.3853 21.8564 35.2437 22.1982 34.9917 22.4502C34.7397 22.7022 34.3979 22.8438 34.0415 22.8438H8.95817C8.60323 22.8391 8.26413 22.696 8.01313 22.445C7.76212 22.194 7.61906 21.8549 7.61442 21.5Z" fill="#D05284"/>
</g>
<defs>
<clipPath id="clip0_0_1">
<rect width="1512" height="14459" fill="white" transform="translate(-674 -1226)"/>
</clipPath>
</defs>
</svg>
